<svg width="524" height="298" viewBox="0 0 524 298" xmlns="http://www.w3.org/2000/svg">
<g fill="#ccbcaf" fill-rule="nonzero">
<path
d="M.2 55.9c18.1-7.2 36.2-14.5 54.3-21.7 27.5-11 55.2-22 84.5-26.7 52-8.3 104.9 4.3 156.1 16.7-28 7.5-56.7 14.9-84.7 22.3-13.4 3.6-26.8 7.1-40.4 9.5-16.3 2.8-32.8 3.8-49.3 4.8-32.3 2-64.6 4-96.9 2.2-9.3-.5-16.8-.8-23.6-7.1z" />
  <path
  d="M267.4 186.9c-5.5 9.2-12.5 17.5-17.7 26.9-3.5 6.3-6.3 13.1-10.4 19-7.3 10.4-18.6 17.3-27 26.8-11.6 13.1-18.8 31.8-35.2 38.1-.5-53.9 15.6-106.4 31.6-157.9 3.2-10.3 6.4-20.7 9.6-31 4.8-15.6 9.9-31.5 19.7-44.6 5-6.7 11.2-12.5 17.7-17.9 8.4-7 17.4-14.2 27.1-19.4 11.9-6.4 13.5-4.9 12.3 7.1-1.8 17.6-6.3 34.7-7.5 52.6-2.4 33.9-2.3 70.1-20.2 100.3z" />
  <path
d="M300.8 96.4c16.7 48.1 34.1 97.5 66.9 136.5 2.1 2.5 5.9 5 8.1 2.7 5.3-10.5 1.4-23.1-2.5-34.1-8.4-23.7-16.9-47.4-25.3-71.1-8.9-24.9-18.2-50.5-36-70 44.4 52.2 105.9 86.4 166.2 119.1 8.2 4.5 20.6 7.9 25.2-.2 4.3-7.4-3.1-16-9.7-21.4l-98.1-79.8c-11.3-9.2-22.8-18.5-36.2-24.4-12-5.3-25.3-7.6-38.3-6.8 10.6-9 26.3-2 39.9 1.3 24.5 5.9 49.9-2.7 74.9-5.4 15.5-1.7 31.2-1.2 46.7-3.6C498 36.8 513.7 31 523.8 19c-44.1-24.4-98-19.1-148-12.6-14.8 1.9-29.7 3.9-43.4 9.6-35.2 14.5-43.2 47-31.6 80.4z" />
</g>
</svg>