        <svg width="418" height="355" viewBox="0 0 418 355" xmlns="http://www.w3.org/2000/svg">
          <g fill="none" fill-rule="evenodd">
            <path
              d="M25.219 333.386c-7.477.359-15.364.748-19.871 1.435-4.61.708-4.917 1.595-4.61 2.422 1.434 3.29 12.497 6.718 38.514 8.822 4.711.378 9.73.707 14.442 1.086 4.814.399 9.014.847 13.726 1.256 40.152 3.548 100.073 3.538 153.336 4.525 25.3.469 50.19 1.206 75.797 1.505 25.607.3 52.75.13 75.183-1.106 20.588-1.136 35.85-3.15 40.869-5.402 5.838-2.622-1.742-5.343-10.96-7.875-9.116-2.502-19.871-4.944-32.06-7.316-6.658-1.286-13.828-2.561-23.866-3.618-20.179-2.133-49.678-3.16-77.846-4.117-13.828-.468-27.554-.927-41.381-1.395-35.236-1.186-74.261-2.372-108.677-.977-23.662.957-40.87 3.17-45.786 5.602-1.946.967 1.536 2.282-4.61 3.1-7.272.957-31.343 1.535-42.2 2.053z"
              fill-opacity=".08" fill="#032" />
            <path
              d="M34.972 117.332c-7.296 3.603-14.993 7.506-19.39 14.412-4.499 7.106-4.799 16.014-4.499 24.321 1.4 33.029 12.195 67.459 37.583 88.577 4.598 3.803 9.496 7.106 14.094 10.91 4.698 4.003 8.796 8.507 13.394 12.61 39.182 35.631 97.656 35.531 149.632 45.44 24.689 4.704 48.978 12.11 73.967 15.113 24.988 3.002 51.476 1.3 73.366-11.11 20.091-11.41 34.984-31.627 39.882-54.247 5.698-26.323-1.699-53.646-10.695-79.068-8.896-25.122-19.391-49.643-31.286-73.464-6.497-12.911-13.494-25.722-23.29-36.332-19.69-21.418-48.477-31.727-75.965-41.335-13.494-4.704-26.888-9.308-40.382-14.013C197 7.236 158.916-4.674 125.332 9.338c-23.09 9.608-39.882 31.828-44.68 56.249-1.9 9.708 1.5 22.92-4.498 31.127-7.097 9.608-30.586 15.413-41.182 20.618z"
              stroke="#193C35" stroke-width="3" />
          </g>
        </svg>