        <svg width="312" height="375" viewBox="0 0 312 375" xmlns="http://www.w3.org/2000/svg">
          <path
            d="M119.2 2.465c8.51 1.091 17.458 2.292 24.55 7.531 6.656 4.912 10.802 12.771 16.149 19.32 21.495 26.743 62.085 34.712 72.887 68.222 4.365 13.426 3.383 30.018 13.094 39.405 4.692 4.585 11.02 6.55 16.04 10.697 21.931 18.12 3.164 57.525 11.565 86.233 5.783 19.538 23.787 31.873 31.643 50.538 7.42 17.574 4.91 37.986 1.964 57.088-1.636 10.26-3.928 21.722-12.002 27.398-4.801 3.275-10.693 3.82-16.258 4.039-22.259.655-44.627-3.711-65.359-12.662-14.73-6.44-29.024-15.173-44.845-17.356-10.584-1.419-21.386.219-32.08-.109-16.584-.437-32.951-5.785-47.027-15.282-16.148-10.915-29.788-28.707-30.879-49.447-.545-9.605 1.637-19.21 2.183-28.926 1.855-34.93-18.004-66.366-38.735-92.89-7.42-9.497-15.276-19.212-18.004-31.437-1.964-8.95-.873-18.338.218-27.507 2.073-17.465 4.146-34.82 6.22-52.285C11.942 34.556 78.828-2.557 119.2 2.465z"
            stroke="#7E813C" stroke-width="3" fill="none" fill-rule="evenodd" />
        </svg>