        <svg width="358" height="460" viewBox="0 0 358 460" xmlns="http://www.w3.org/2000/svg">
          <path
            d="M226.014 445.903c-13.184 4.302-25.469 11.706-39.252 13.707-13.784 2-30.264-3.702-34.16-17.008-2.097-7.004-.498-15.408-5.393-20.81-2.996-3.402-7.79-4.703-12.185-5.703-41.55-9.905-98.68-10.305-124.55-29.815-11.186-8.404-14.582-40.32-4.394-57.527 13.284-22.411 47.143-22.011 65.221-40.72 18.478-19.11 14.583-51.625 30.563-72.935 9.689-13.007 25.47-20.01 41.15-24.112 51.838-13.707 107.071-1.801 157.21 16.908 6.393-14.307-9.987-27.813-23.97-34.817-85.897-43.02-175.688-78.238-267.877-105.15 6.692-10.106 13.284-20.11 19.976-30.215C40.738 18.896 57.917-2.214 80.29.188c20.076 2.2 32.561 22.41 49.84 33.015 20.675 12.607 49.54 9.605 67.219-7.003 4.794-4.502 8.79-9.805 14.083-13.606 6.692-4.903 15.082-6.904 23.272-7.804 48.84-5.203 95.285 30.815 114.861 75.937 5.194 12.005 8.89 24.912 8.39 38.018-.4 11.806-4.295 23.211-7.391 34.517-10.488 38.818-12.585 79.938-6.093 119.658 4.994 30.314 14.982 60.329 12.285 90.944-1.897 21.71-10.088 42.32-18.078 62.53-2.197 5.403-4.694 11.305-9.888 14.007-8.59 4.602-31.662-.2-41.35-.1-20.575 0-41.55-.9-61.426 5.602z"
            fill="#193C35" fill-rule="nonzero" />
        </svg>