        <svg width="492" height="313" viewBox="0 0 492 313" xmlns="http://www.w3.org/2000/svg">
          <path
            d="M5.899 157.937c7.395 8.805 18.29 13.807 26.785 21.612 16.29 15.108 21.388 38.322 28.884 59.233 7.496 20.912 21.288 43.025 43.276 46.227 13.392-2.702 10.594-23.214 2.498-34.22-8.095-11.006-18.59-25.914-10.094-36.62 23.087 29.616 49.772 56.331 79.256 79.545 11.094 8.704 23.187 17.21 37.18 19.01 13.992 1.801 30.083-5.303 33.88-18.91 3.698-13.308-5.397-26.916-15.59-36.12-10.195-9.206-22.588-17.01-29.085-29.217 48.973 17.31 97.846 34.52 146.819 51.829 3.498 1.2 7.096 2.501 10.794 2.301 12.293-.5 18.89-16.41 15.191-28.216-3.598-11.806-13.492-20.411-21.887-29.416-8.396-9.006-16.291-20.612-14.193-32.819 34.581 3.502 69.762.8 103.443-7.905 17.69-4.602 36.48-12.106 44.875-28.316 14.592-28.015-12.493-61.935-42.676-71.04-30.183-9.105-62.865-3.502-94.048-8.705 7.596-8.905 15.391-18.11 18.49-29.416 3.098-11.307-.1-25.115-10.394-30.818-13.193-7.204-28.984 2.201-41.078 11.307-28.784 21.712-57.668 43.524-86.452 65.237-1.699-16.01 7.296-30.818 12.593-45.927 5.297-15.108 5.197-35.32-8.595-43.524-17.29-10.206-37.38 7.204-49.872 22.813-18.19 22.813-36.48 45.626-54.67 68.439-14.292 17.91-35.88 37.821-56.768 28.516-6.197-27.916 42.976-47.227 33.88-74.342-5.396-16.11-29.283-18.11-42.875-8.005-13.593 10.106-19.79 27.215-26.186 42.924-9.495 23.113-55.37 48.428-33.381 74.543z"
            fill="#7E813C" fill-rule="nonzero" />
        </svg>