        <svg width="299" height="243" viewBox="0 0 299 243" xmlns="http://www.w3.org/2000/svg">
          <path
            d="M287.079 112.76c9.009-11.9 13.413-28.5 6.606-43.499-2.302-5.1-6.806-10.3-12.312-10.6-4.604-.2-8.108 3.3-9.61 7.3-1.5 4-1.5 8.5-2.201 12.8-3.604 21-23.924 33.599-44.044 41.299-2.002.8-4.704 2.4-6.306-.5-1.601-2.9 14.715-18.8 22.122-28.2 3.103-3.9 6.206-8 7.307-13 1.802-8.199-2.302-17.199-6.306-25.398-3.303-6.8-9.11-15.1-16.316-14-4.404.6-7.007 4.9-7.508 9.2-.5 4.3.601 8.8.901 13.2 1.602 19.799-11.21 35.998-23.423 50.398-2.402 2.8-7.207 5.6-9.91 2.3-2.001-2.4-.3-5.6 1.402-7.7 8.008-9.7 17.517-19.5 17.517-32.599 0-7.5-3.203-15.1-6.406-22.4-1.902-4.3-3.804-8.7-7.107-12.199-3.303-3.5-8.408-6-12.713-4.9-4.504 1.2-6.806 5.7-7.207 10.3-.4 4.6.801 9.3 1.302 14 1.2 13-3.804 25.599-13.413 33.498-3.104-1.5-2.002-5.7-.701-8.5 11.711-23.099.6-56.898-24.024-73.197-6.206 3.1-7.707 11.3-6.206 18.4 1.502 7.2 5.405 13.899 7.808 20.899 2.402 7 3.303 15.1-1.001 20.4-10.41-6.3-13.313-19.2-19.32-29.5-7.506-12.8-20.319-22-32.631-30.8C76.172 4.664 66.362-.736 59.756 3.564c-.901.6-1.602 1.3-1.902 2.3-.4 2 1.401 4.1 3.003 5.7 10.81 10.9 30.23 34.799 27.126 38.899-4.104 5.5-43.042-12.6-64.563-15.1-4.705-.5-9.91-.8-13.113 2-.7.6-1.301 1.5-1.201 2.5.1.8.8 1.5 1.401 2.2 8.208 8.4 18.919 14.6 30.13 17.4 7.207 1.8 14.514 2.2 21.721 3.9 7.207 1.8 18.719 8.1 19.019 11.399.3 3.2-27.727 5.5-42.242 4.6-7.006-.4-14.213-1.4-20.92-.3-6.707 1.1-13.213 4.7-15.215 10.9 9.71 9 23.323 12.7 35.835 12.6 12.512-.2 24.224-3.7 35.735-7.3 5.806-1.8 14.014-2.8 17.517 2.8-5.105 12.599-15.515 22.599-28.628 27.498-5.505 2.1-11.511 3.4-15.815 7s-6.206 10.9-1.902 15.7c4.604 5.2 12.612 4.3 18.618 2.2 18.919-6.5 34.734-19.1 44.544-35.6 2.102-3.6 6.206-7.799 10.21-5.2 3.103 2.1 2.603 6.4 1.501 9.5-4.004 11.2-10.91 21.1-20.12 28.5-6.706 5.4-15.515 12.3-11.911 21 3.003 7.599 14.014 9.999 20.82 6.699 6.807-3.3 10.41-10.4 13.614-17.2 7.307-15.199 17.617-45.198 21.921-45.598 4.305-.4 12.613 17.6 12.112 27.4-.5 9.799-4.805 18.599-9.61 26.798-4.203 6.9-8.808 15.4-4.303 23.2 4.704 8.2 17.216 9.4 24.323 4.7 7.107-4.7 10.21-13.3 12.813-21.4 3.403-10.5 6.606-21.8 3.203-33.199-.6-2-1.501-4.1-1.201-6.2.3-2.1 2.202-3.8 4.304-3.1.8.3 1.502.8 2.102 1.4 8.509 7.7 12.112 19.2 11.411 29.6-.7 10.3-5.205 19.699-10.51 28.099-4.805 7.8-10.41 17.7-4.604 26.099 5.305 7.7 17.317 8.2 24.023 3.2 6.707-5 9.21-13.6 10.71-22 1.903-10.1 2.803-20.399 2.904-30.899 0-6.4 1.2-18.8 4.704-17.4 3.504 1.4 19.52 51.7 7.808 73.099-1.001 1.8-2.002 3.5-2.302 5.5-.701 4.5 2.802 9.5 7.307 11.8 4.504 2.3 9.71 2.1 14.114.7 10.01-3.2 16.215-12.6 18.518-22.7 2.202-10.1 1-20.9-.1-31.6-.901-7.899-1.902-16.199-6.507-23.199-6.006-9.2-16.616-15.6-8.808-24.099 9.209-9.2 21.62-14.8 29.729-25.6z"
            stroke="#b39976" stroke-width="3" fill="none" fill-rule="evenodd" />
        </svg>