<svg width="307" height="799" viewBox="0 0 307 799" xmlns="http://www.w3.org/2000/svg">
  <path d="M247.596 769.527c.2.8-1.3 1-1.7.3-.399-.7 0-1.6.3-2.401 2.2-5.303 1.4-11.505-.899-16.808-2.198-5.302-5.796-9.904-9.394-14.406-3.298-4.202-6.596-8.504-9.894-12.706-1.6-2.001-3.198-4.102-5.497-5.002-1.899-.8-4.097-.7-6.196-.6-19.188 1.1-38.776 4.201-57.965 2.8 29.582-29.713 82.25-27.312 109.034-59.627 20.088-24.21 17.89-61.728 1-88.24-4.598-7.203-10.494-14.006-18.59-16.808-16.09-5.402-32.08 7.404-44.272 19.21-11.893 11.504-24.186 23.61-30.382 39.017-2.598 6.603-4.097 13.606-5.896 20.41-3.598 13.806-7.396 27.812-13.692 40.618-9.694-20.61-6.796-45.02-.6-67.03 6.197-22.01 15.491-43.22 17.99-65.93.3-2.702.6-5.603 2.198-7.804 1.7-2.301 4.497-3.302 6.996-4.702 20.687-11.005 21.687-40.319 34.879-59.728 12.192-17.908 33.979-25.912 53.067-36.016 19.089-10.105 38.577-26.412 38.577-48.122 0-4.402-.9-8.904-3.198-12.506-4.897-7.603-15.19-10.104-24.185-8.904-15.091 2.001-28.583 13.006-33.58 27.413-3.298 9.304-4.397 21.31-13.492 25.211 4.597-19.809 3.398-40.918-3.398-60.127 16.99-15.307 37.677-26.412 59.764-32.215 4.397-1.1 8.894-2.2 12.392-5.002 10.294-8.204 5.497-24.611-.2-36.517-1.499-3.101-2.998-6.303-5.496-8.604-3.598-3.401-8.595-4.602-13.492-4.902-18.589-.9-35.878 11.405-46.072 27.112-10.094 15.707-14.391 34.416-18.389 52.624-12.692-8.003-30.181-3.801-41.774 5.703-11.593 9.504-18.689 23.41-25.385 36.817-6.796 13.506-13.592 27.212-16.89 42.019-3.198 14.807-2.498 31.014 5.197 44.02 3.298 5.502 7.895 10.805 8.295 17.208.4 6.403-6.896 13.306-12.092 9.504-1.8-1.3-2.699-3.401-3.498-5.402-6.496-15.407-13.192-31.315-13.792-48.022-1.1-30.114 17.19-57.026 27.283-85.34 11.893-33.614 12.793-71.532 31.581-101.846 4.597-7.403 10.294-14.406 12.792-22.81 4.698-15.407-1.798-31.714-8.294-46.421 16.69.8 33.48 1.5 49.87-1.901 16.39-3.402 32.38-11.305 42.173-24.811 11.394-15.808 12.893-36.517 13.892-55.926.6-11.705.8-24.711-7.096-33.315-8.295-9.004-23.086-9.304-34.079-3.802-10.993 5.503-18.988 15.407-26.184 25.312-17.19 23.51-32.38 48.522-45.372 74.634-.7-18.709-20.188-31.915-36.278-41.219 3.198-13.006 13.591-23.61 15.19-36.917 1.1-8.704-1.698-17.308-4.497-25.611-5.896-17.709-11.793-35.317-17.689-53.025-1.4-4.302-2.998-8.804-5.896-12.205-7.496-8.604-22.087-7.704-30.882-.5C85.095 12.882 80.997 24.487 79 35.692c-3.898 21.71-1.4 44.52 6.995 64.93 1.8 4.302 4.098 8.804 8.195 10.905 3.898 2 8.695 1.4 12.892 2.801 9.495 3.101 12.893 14.607 14.891 24.511-8.495.2-14.49 5.503-19.788 12.206-5.296 6.603-8.794 14.406-13.092 21.81-5.197 9.004-11.593 17.308-15.29 27.012-3.098 8.304-3.998 17.208-4.797 25.912-2.699 27.512-5.397 55.925 3.098 82.137 3.797 11.706 9.694 22.61 13.591 34.316 4.198 12.406 6.097 25.612 5.697 38.718 0 1.4-.2 3.001-1.1 4.001-2.198 2.502-6.196.2-8.594-2l-15.89-14.707c-5.297-4.902-10.794-9.905-17.49-12.706-6.696-2.701-14.99-2.801-20.587 1.9-5.597 4.603-7.096 12.307-8.295 19.41-1.9 11.305-3.798 23.31.3 34.015 2.298 5.903 3.198 10.805 7.395 15.507 10.793 11.906 25.684 20.01 41.475 22.61 2.798 27.713 5.197 55.526 4.097 83.439-2.398.9-4.997 1.7-7.595 1.6-2.598-.1-5.297-1.5-6.196-3.901 2.798-8.104-3.598-19.109-8.295-26.312-1.4-2.101-2.799-4.202-4.697-5.803-1.8-1.4-3.998-2.301-6.197-3.001C29.03 491.5 17.536 490.3 6.342 491.4 13.539 589.345-3.95 688.59.847 786.735c58.564 3.901 117.129 7.803 175.693 11.605 14.092.9 28.783 1.8 41.675-4.002 10.993-4.702 25.484-13.306 29.382-24.811z" fill="#193C35" fill-rule="nonzero"/>
</svg>
