<svg width="145" height="96" viewBox="0 0 145 96" xmlns="http://www.w3.org/2000/svg">
  <g fill="#193C35" fill-rule="nonzero">
    <path d="M122.2 23.7c1.5.4 3.1.1 4.6-.2 1.6-.3 3.1-.6 4.7-.9 1.5-.3 3.1-.7 4.1-1.8 1.2-1.4 1-3.5.1-5.1-.9-1.6-2.3-2.7-3.8-3.8-2.3-1.7-4.6-3.5-7.3-4.4-13.7-4.7-13.3 13.5-2.4 16.2zM127.4 61c1 .9 1.8 2.1 3.1 2.5 1.4.5 2.8 0 4.2-.4 1.9-.6 3.7-1.2 5.6-1.8 1.7-.6 3.6-1.3 4.4-2.9 1-2.1-.5-4.6-2.2-6.2-3.8-3.6-14.2-9.1-18.9-4.9-.3.3-3.4 6.6-3.4 7.4.1 4 4.6 3.8 7.2 6.3zM.3 76.1C.1 80 1.1 84 2.6 87.6c.6 1.5 1.3 2.9 2.5 4 1.7 1.6 4 2.2 6.2 2.7 4.1 1 9 1.8 12.1-1.2 2.3-2.2 2.6-5.8 1.6-8.8-.9-3-2.9-5.6-4.7-8.2-2-2.9-3.8-5.9-6.6-8-7.4-5.9-13-.2-13.4 8zM94.7 76.9c.8 1.4 2.1 2.4 3.6 3.2.6.3 1.3.6 2 .6.8.1 1.5-.1 2.2-.3 1.6-.4 3.4-1 4.5-2.3.5-.7.9-1.5 1-2.3.4-1.7.1-3.6-.5-5.3-.2-.5-.4-1-.8-1.4-.4-.3-.8-.5-1.2-.6-1.3-.4-2.5-.9-3.8-1.3-1.5-.5-3-1-4.5-.5-3.7 1.4-4.2 7.3-2.5 10.2zM100.7 50.2c2.3-.5 4.1-2.4 5.1-4.6 1-2.2 1.1-5-.7-6.7-1.1-1-2.6-1.3-4.1-1.6-1.5-.3-2.9-.6-4.4-.8-.4-.1-.9-.2-1.3-.1s-.7.3-1.1.6c-1.1.8-2.3 1.7-2.6 3-.1.5-.1 1 0 1.4.6 3.9 4.6 9.8 9.1 8.8zM86.7 16.5c.6.1 1.3.3 1.9.1 1.1-.2 2-1.1 2.7-2 1.2-1.6 2.3-3.5 2-5.5-.2-1.3-1-2.5-1.8-3.5-.4-.6-.9-1.2-1.3-1.8-.4-.5-.8-1.1-1.3-1.5-.8-.7-1.9-1-2.9-1.2-1.4-.3-2.9-.5-4.3-.7-1-.1-1.9-.1-2.9.1-1.6.4-2.8 1.7-3.4 3.2-.6 1.5-.7 3.2-.3 4.8.5 2.2 1.8 5.1 3.9 6.3 2 1.2 5.3 1.2 7.7 1.7zM68.8 46.2c2 1.2 4.7.6 6.4-.9 1.8-1.5 2.7-3.8 3.2-6 .4-1.9.5-3.9-.6-5.5-1-1.4-2.8-2.1-4.5-2.6-2-.6-4.2-1.2-6.1-.2-1.3.7-2.1 2-2.5 3.4-.9 3.6.6 9.8 4.1 11.8zM47.5 22.6c.7.2 1.3.4 2 .3.8-.1 1.5-.4 2.3-.8 1.6-.8 3.1-1.7 4.3-3 1.2-1.3 1.8-3.2 1.2-4.9-.3-.9-.8-1.6-1.5-2.2-3.4-3.7-9-5.2-13.8-3.9-.9.2-1.9.7-2.4 1.5-.3.5-.4 1.2-.4 1.8-.1 1.5-.3 2.9 0 4.4.5 3.7 4.9 5.7 8.3 6.8zM40.5 53.6c.7.4 1.5.6 2.2.5.8-.1 1.5-.6 2.2-1.1.9-.7 1.9-1.5 2.7-2.4 1.1-1.1 2.1-2.4 2.2-3.9 0-1.1-.4-2.1-.9-3-.2-.5-.5-1-.8-1.4-.4-.5-1-.7-1.6-1-1.1-.5-2.2-1-3.4-.9-.6 0-1.1.2-1.6.4-2.6.9-6.4 2.1-6 5.4.3 3.1 2.3 6 5 7.4zM30.7 77.8c.2.4.5.9.9 1.1.4.2.9.1 1.4 0 2.4-.6 5.1-1.4 6.2-3.7.3-.7.5-1.5.6-2.3.2-1.2.4-2.5.1-3.7-.4-1.7-1.8-3.1-3.5-3.6s-3.6 0-4.9 1.2c-.3.3-.5.6-.8.9-1.2 1.5-2.9 2.7-2.5 4.6.4 1.8 1.6 3.8 2.5 5.5zM62 78.6c1 1.3 2.4 2.3 4 2.8 2.9.9 6.5.2 8-2.3.6-1 .9-2.2 1.1-3.4.2-.9.4-1.7.2-2.6-.1-.5-.3-1-.6-1.5-.8-1.5-1.9-2.8-3.4-3.6-1.5-.8-3.3-1-4.8-.4-.8.4-1.5 1-2.2 1.5-.8.6-1.6 1.2-2.2 1.9-1.7 2.1-1.5 5.6-.1 7.6zM12.6 48.8c.4.6.8 1.3 1.4 1.7.5.3 1 .4 1.6.4 2.1.2 4.3-.1 6.2-.9.8-.3 1.6-.7 2.2-1.3.8-.9 1.1-2.1 1.3-3.3.2-.9.3-2-.3-2.7-.3-.3-.7-.5-1.1-.7-1.2-.6-2.3-1.1-3.5-1.7-1.9-.9-4.1-1.9-6.2-1.2-1.7.6-3.6 2.7-4 4.4-.4 1.8 1.5 3.8 2.4 5.3z"/>
  </g>
</svg>
