<svg width="591" height="319" viewBox="0 0 591 319" xmlns="http://www.w3.org/2000/svg">
  <path d="M418.161 26.32C488.5 51.054 552.51 98.377 588 163.9c-68.622 27.73-150.646 19.594-212.406-20.984.536 31.37 34.633 49.036 57.15 70.878 25.41 24.625 38.385 61.456 33.989 96.573-42.353 17.773-96.821-1.499-118.48-41.97-13.51-25.267-22.838-62.42-51.574-62.526-8.684 13.062-22.409 21.841-35.812 29.978-24.553 14.775-50.93 29.23-79.558 29.765-28.628.428-59.615-17.56-63.904-45.825-2.359-15.31 2.466-33.404-8.149-44.646-5.468-5.782-13.51-7.923-21.015-10.493C51.679 152.445 20.37 125.25 3 90.882 134.668 12.402 267.944-26.677 418.161 26.32z" stroke="#C5D3C1" stroke-width="3" fill="none" fill-rule="evenodd"/>
</svg>
