<svg width="813" height="484" viewBox="0 0 813 484" xmlns="http://www.w3.org/2000/svg">
  <g fill="none" fill-rule="evenodd">
    <path d="M43.85 433.272c-13.347.86-27.425 1.79-35.47 3.438-8.228 1.695-8.776 3.82-8.228 5.801 2.56 7.878 22.307 16.091 68.747 21.128 8.411.908 17.37 1.695 25.78 2.603 8.594.955 16.09 2.029 24.5 3.008 71.673 8.499 178.634 8.475 273.71 10.838 45.16 1.123 89.59 2.89 135.3 3.605 45.709.717 94.16.31 134.202-2.65 36.75-2.721 63.994-7.544 72.953-12.94 10.422-6.278-3.108-12.796-19.564-18.86-16.272-5.992-35.47-11.841-57.228-17.523-11.885-3.08-24.683-6.136-42.601-8.666-36.02-5.11-88.677-7.568-138.957-9.86-24.683-1.122-49.184-2.22-73.867-3.343-62.896-2.84-132.557-5.682-193.99-2.34-42.236 2.293-72.953 7.593-81.73 13.418-3.473 2.316 2.743 5.467-8.227 7.425-12.982 2.292-55.949 3.676-75.33 4.918z" fill-opacity=".05" fill="#032"/>
    <path d="M225.063 215.853c11.999 12.892 24.098 26.083 32.497 41.574 6.7 12.392 10.899 25.983 15.098 39.475 8.3 27.183 16.598 54.266 24.697 81.448 3.8 4.398 10-2.498 11.4-8.094 7.898-31.98 10.298-65.36 7.098-98.139-.9-8.894-2.2-17.888-1.1-26.783 1.4-11.892 6.9-22.985 12.9-33.379 17.297-30.18 38.995-57.863 64.292-81.748 17.998-16.99 37.696-32.08 57.294-47.07 18.698-14.292 37.396-28.583 56.094-42.973 16.298-12.493 32.896-25.085 52.094-32.38 19.198-7.295 41.696-8.595 59.594 1.399-10.799 76.452-41.496 150.105-88.19 211.767-16.199 21.486-34.397 41.474-49.995 63.36-23.198 32.48-40.596 68.956-54.594 106.533 13.698-33.78 48.994-52.767 81.69-69.057 21.799-10.793 43.696-21.686 67.094-28.282 11.098-3.098 22.497-5.297 32.896-10.194 10.299-4.897 19.098-12.392 29.197-17.788 22.098-11.893 48.095-12.892 73.192-13.692 36.196-1.1 77.092-.3 101.689 26.184-33.496 29.88-66.993 59.862-100.49 89.743-9.498 8.495-18.997 16.99-27.196 26.583-4.9 5.697-9.3 11.893-15.199 16.49-5.799 4.597-12.798 7.495-19.597 10.194-25.398 10.093-51.195 19.088-77.492 26.883-19.598 5.796-39.696 10.993-60.094 11.093-43.195.1-83.19-22.386-125.786-29.882-27.497-4.896-55.694-3.397-83.49-1.998-84.292 4.197-170.782 7.195-250.974-19.288-9.499-3.198-19.198-6.796-26.797-13.392-23.797-20.287-19.198-57.563-12.498-88.144 10.598-48.47 21.197-97.239 39.895-143.31 13.599-33.479 38.096-93.84 76.592-53.266 33.096 35.078 65.393 70.755 98.19 106.133z" stroke="#7E813C" stroke-width="3"/>
  </g>
</svg>
