<svg width="97" height="106" viewBox="0 0 97 106" xmlns="http://www.w3.org/2000/svg">
  <path d="M56.802 90.22c-.2 4.582-.7 9.662-4.1 12.85-2.7 2.49-6.6 3.287-10.3 2.789-3.7-.498-7.099-1.992-10.399-3.486-1.1-.498-2.3-1.096-2.9-2.192-.4-.797-.4-1.793-.3-2.69.9-9.164 9-16.934 7.9-26.098-1.2-.498-2.5-1.096-3.7-1.594-2.2 1.693-4.3 3.387-6.5 5.08-4.3 3.387-8.999 6.874-14.499 7.57-5.5.599-11.799-2.987-11.999-8.466-.2-5.579 5.5-9.264 10.5-11.854 3.8-1.992 7.699-3.985 11.499-5.977-3-3.287-7.3-4.98-11.2-7.072-3.9-2.092-7.9-5.08-8.699-9.464-1-5.08 2.5-9.861 5.8-13.846 2.8-3.387 5.7-6.873 9.799-8.567 4-1.693 9.5-.896 11.7 2.89 1 1.693 1.8 4.183 3.7 3.984.8-.1 1.399-.598 1.899-1.096 2.7-2.889 2.9-7.172 4.2-10.858 1.7-4.781 5.5-8.866 10.2-10.858C53.701-.627 59.201-.528 62.8 2.461c3 2.49 4.2 6.574 4.1 10.459-.1 3.885-1.4 7.57-2.6 11.256 1 .797 2.7.498 3.7-.398 1-.897 1.7-2.092 2.5-3.088 2.6-3.487 6.6-5.38 10.5-7.272 1-.498 2.1-.996 3.199-.996 2-.1 3.7 1.295 5.1 2.69 3.8 4.084 6.1 9.662 6.1 15.24 0 1.196-.1 2.391-.6 3.487-.5 1.195-1.5 2.092-2.6 2.888-6.3 5.08-14.7 7.471-22.8 6.475-.3 1.395-.499 2.89-.799 4.284 3.6 2.49 8.3 2.191 12.6 2.789C89 51.37 96.898 57.049 96.998 64.918c.1 9.065-9.9 15.141-12.199 23.907-3.8 1.992-8.9 1.196-11.8-1.992-1.8-1.893-2.7-4.483-3.8-6.774-1.099-2.49-9.099-16.336-12.398-14.145-1.9 1.494.2 21.019 0 24.306z" fill="#b39976" fill-rule="nonzero"/>
</svg>
