<svg width="207" height="326" viewBox="0 0 207 326" xmlns="http://www.w3.org/2000/svg">
  <g fill="none" fill-rule="evenodd">
    <path d="M27.156 304.538c-3.396.364-6.978.758-9.024 1.455-2.093.717-2.233 1.616-2.093 2.454.651 3.333 5.674 6.808 17.489 8.939 2.14.384 4.419.717 6.558 1.1 2.186.405 4.093.86 6.233 1.273 18.233 3.596 45.444 3.586 69.63 4.586 11.49.475 22.793 1.222 34.421 1.525 11.628.303 23.954.132 34.141-1.12 9.35-1.152 16.28-3.193 18.559-5.475 2.651-2.657-.79-5.414-4.977-7.98-4.14-2.535-9.024-5.01-14.559-7.413-3.023-1.303-6.28-2.596-10.837-3.667-9.164-2.161-22.56-3.202-35.35-4.171-6.28-.475-12.513-.94-18.792-1.415-16.001-1.202-33.723-2.403-49.351-.99-10.745.97-18.56 3.213-20.792 5.677-.884.98.698 2.313-2.093 3.141-3.302.97-14.233 1.556-19.163 2.081z" fill-opacity=".08" fill="#032"/>
    <path d="M91.486 300.782c-24.446-27.47-46.987-56.44-63.217-87.906C13.942 185.206 4.524 155.737.317 125.87c-1.002-7.392 0-16.982 8.515-18.98 5.811-1.298 11.822 2.298 14.928 6.693 3.106 4.396 4.308 9.49 7.013 14.085 2.805 4.795 7.214 8.691 11.12 12.887 27.452 29.168 34.164 69.126 60.413 99.094 16.23-47.15-3.807-97.296-3.707-146.444 0-26.97 6.111-53.742 12.223-80.214C112.124 7.196 115.53-.196 122.543.004c4.609.1 7.915 3.596 10.32 6.793 16.43 22.875 15.628 51.345 14.226 78.116-2.705 51.545-5.31 102.99-8.015 154.535 5.11-17.282 10.119-34.663 15.228-51.945 7.013-24.074 14.327-48.548 29.956-69.525 2.705-3.696 7.514-7.692 12.222-5.894 2.505.9 3.808 3.197 4.81 5.294 3.306 6.793 5.71 13.985 5.71 21.278 0 10.089-4.308 19.679-8.616 29.068-5.61 12.287-11.321 24.574-16.931 36.761-2.004 4.296-8.316 14.485-10.72 22.077-2.405 7.591-9.919 32.465-20.739 52.543-4.508 8.291-9.217 16.882-17.232 22.976-11.721 9.09-31.458 9.79-41.276-1.299z" fill="#a57d4c" fill-rule="nonzero"/>
  </g>
</svg>
