<svg width="162" height="156" viewBox="0 0 162 156" xmlns="http://www.w3.org/2000/svg">
  <path d="M10.693 102.04c5.61 0 11.118-2.293 16.627-1.296-.7 4.885-3.706 8.972-5.709 13.557-1.903 4.486-2.404 10.467 1.402 13.657 10.417-.1 19.933-5.782 28.848-11.165 2.804-1.694 5.609-3.489 8.013-5.682 2.804-2.691 6.01-6.38 9.616-4.884 3.005 7.775-.501 16.248-3.706 23.924-3.206 7.675-6.01 16.647-1.904 23.924.301.598.802 1.196 1.403 1.595.801.398 1.703.398 2.604.199 7.112-1.296 12.52-7.177 16.327-13.357 5.309-8.573 8.814-18.342 10.016-28.41.3-1.994.802-4.486 2.705-5.084 1.001-.299 2.103 0 3.005.399 4.707 1.993 7.913 6.38 10.818 10.566 2.904 4.187 6.01 8.573 10.517 10.866 4.507 2.292 11.218 1.395 13.522-3.09 1.903-3.888.2-8.474-1.603-12.361-1.702-3.888-3.505-7.875-6.41-11.065-2.905-3.19-7.012-5.483-11.319-5.084l-.3-3.888c9.616-2.292 19.231-5.083 28.647-8.174 6.811-2.292 14.223-.598 17.529-8.273 1.101-2.692.901-6.08-1.202-7.975-2.204-1.994-5.41-1.894-8.314-1.595-4.407.3-8.814.598-13.222.997-2.704.2-6.11.1-7.412-2.293-1.302-2.392.3-5.183 1.903-7.376 3.706-5.184 7.412-10.367 11.018-15.55 1.803-2.493 3.606-5.085 4.307-7.975.702-2.991.2-6.38-2.103-8.374-3.005-2.592-7.613-1.694-11.319-.399-10.918 3.788-20.934 10.068-29.047 18.342-1.202 1.196-2.504 2.492-4.207 2.692-3.506.299-5.209-4.187-5.61-7.676-1.502-12.959-2.003-26.117-1.402-39.175C89.122-2.627 79.206.663 75.2 7.142c-4.007 6.48-3.906 14.653-3.305 22.23.6 7.575 1.402 15.55-1.703 22.528-4.808 1.196-9.516-1.994-13.522-4.985-5.109-3.887-10.117-7.675-15.225-11.563-3.807-2.89-8.514-5.881-12.922-4.087-4.106 1.595-5.609 6.978-4.507 11.165 1.102 4.286 4.207 7.675 7.212 10.965 4.507 4.884 9.015 9.868 13.522 14.753.4.498.902.997 1.002 1.595.7 2.293-2.705 3.588-5.109 3.788-13.221 1.196-26.043 6.28-36.56 14.454C2.48 89.18.977 90.577.276 92.47c-1.703 4.884 4.808 9.47 10.417 9.57zm55.29-25.818c-.1-1.595-.2-3.389.602-4.785 1.603-2.79 6.11-3.688 6.21-6.878 0-.697-.2-1.595.2-2.193.3-.498 1.002-.697 1.503-.797 3.105-.698 6.31-1.196 9.516-1.396 1.302-.1 2.604-.1 3.806.399 1.402.598 2.404 1.794 3.305 2.99 2.004 2.692 3.807 5.483 5.309 8.374.801 1.595 1.603 3.19 1.703 4.984.4 12.46-13.322 13.059-22.137 12.161-2.103-.199-4.207-.598-6.01-1.794-3.205-2.293-3.706-6.978-4.006-11.065z" fill="#a57d4c" fill-rule="nonzero"/>
</svg>
